PathFileType	4	(X/Y/Z)	C:\Users\Basilio\Documents\Thesis Gigler\squatting_fais\c3dfiles\044\SJ_pre1\markers_experimental.trc
DataRate	CameraRate	NumFrames	NumMarkers	Units	OrigDataRate	OrigDataStartFrame	OrigNumFrames
200.000000	200.000000	4	63	mm	200.000000	528	1409
Frame#	Time	FHD			LBHD			RBHD			C7			T10			CLAV			LSHO			LUUPA			LMUPA			LDUPA			LLEP			LMEP			LRAD			LUL			LRFIN			RSHO			RUPA1			RMUPA			RDUPA			RLEP			RMEP			RRAD			RUL			RUFIN			LASI			RASI			USACR			LSACR			RSACR			LTHI1			LTHI2			LTHI3			LTHI4			LLFC			LMFC			LTIB1			LTIB2			LTIB3			LTIB4			LLMAL			LMMAL			LHEE			LMT1			LMT2			LMT5			RTHI			RTHI2			RTHI3			RTHI4			RLFC			RMFC			RTIB1			RTIB2			RTIB3			RTIB4			RLMAL			RMMAL			RHEE			RMT1			RMT2			RMT5			*61			*62			
		X1	Y1	Z1	X2	Y2	Z2	X3	Y3	Z3	X4	Y4	Z4	X5	Y5	Z5	X6	Y6	Z6	X7	Y7	Z7	X8	Y8	Z8	X9	Y9	Z9	X10	Y10	Z10	X11	Y11	Z11	X12	Y12	Z12	X13	Y13	Z13	X14	Y14	Z14	X15	Y15	Z15	X16	Y16	Z16	X17	Y17	Z17	X18	Y18	Z18	X19	Y19	Z19	X20	Y20	Z20	X21	Y21	Z21	X22	Y22	Z22	X23	Y23	Z23	X24	Y24	Z24	X25	Y25	Z25	X26	Y26	Z26	X27	Y27	Z27	X28	Y28	Z28	X29	Y29	Z29	X30	Y30	Z30	X31	Y31	Z31	X32	Y32	Z32	X33	Y33	Z33	X34	Y34	Z34	X35	Y35	Z35	X36	Y36	Z36	X37	Y37	Z37	X38	Y38	Z38	X39	Y39	Z39	X40	Y40	Z40	X41	Y41	Z41	X42	Y42	Z42	X43	Y43	Z43	X44	Y44	Z44	X45	Y45	Z45	X46	Y46	Z46	X47	Y47	Z47	X48	Y48	Z48	X49	Y49	Z49	X50	Y50	Z50	X51	Y51	Z51	X52	Y52	Z52	X53	Y53	Z53	X54	Y54	Z54	X55	Y55	Z55	X56	Y56	Z56	X57	Y57	Z57	X58	Y58	Z58	X59	Y59	Z59	X60	Y60	Z60	X61	Y61	Z61	X62	Y62	Z62	X63	Y63	Z63	

529	2.64	10.8924732208252	1290.797973632813	-905.0632324218752	-124.2598724365235	1279.958251953125	-987.1380615234377	-175.2351989746094	1277.12548828125	-829.126892089844	-250.6054077148438	1169.418823242188	-906.155456542969	-464.4113769531251	958.0576171875002	-892.531433105469	-165.189437866211	1045.582885742188	-905.5132446289065	-178.8754577636719	1107.891479492188	-1080.578247070313	-349.6368103027344	1034.731689453125	-1225.311279296875	-354.2674865722657	986.6234130859377	-1218.111206054688	-401.6901855468751	999.690856933594	-1254.6025390625	-443.5494995117189	957.2448730468752	-1266.394653320313	-494.2278747558595	1002.2294921875	-1214.768432617188	-567.9203491210939	761.0873413085939	-1104.459716796875	-540.0026855468751	724.0208740234376	-1157.794067382813	-512.2224121093751	749.3975830078126	-1072.317993164063	-184.0931701660157	1101.004760742188	-716.6744384765626	-336.6130065917969	1028.553955078125	-565.2447509765626	-341.2011718750001	977.7246704101565	-569.9930419921876	-382.9690551757813	989.9547119140627	-528.4346923828126	-421.251434326172	942.0686645507815	-511.1899414062501	-485.935272216797	982.9500122070315	-556.3259887695314	-553.7662353515626	743.9707641601564	-664.4755249023439	-517.8020019531251	707.8048706054689	-610.5547485351564	-492.5613098144532	735.2481079101564	-705.2363891601564	-449.9124450683595	711.0269165039064	-1010.413330078125	-439.4389648437501	698.7299804687501	-785.598083496094	-564.3642578125001	825.3780517578127	-881.8275146484377	-591.7076416015626	803.8068847656252	-907.3547973632815	-585.1812744140626	803.2056884765627	-851.3594970703127	-472.1336364746095	590.5563354492189	-1122.681518554688	-389.9956665039064	574.7881469726564	-1145.423217773438	-362.6727905273438	611.2390747070314	-1135.188232421875	-363.3315429687501	520.8929443359376	-1152.170166015625	-239.6108551025391	435.9349975585939	-1163.899291992188	-220.6037750244141	430.3298645019532	-1049.67822265625	-273.1094665527344	275.4777832031251	-1078.616943359375	-323.4896850585938	242.6349487304688	-1144.878173828125	-296.2335510253907	229.3873901367188	-1108.773559570313	-348.7232055664063	173.4285736083985	-1071.083984375	-450.9652404785157	90.34007263183595	-1110.368041992188	-427.3935852050782	101.3736343383789	-1025.743286132813	-515.6381225585939	48.25448226928712	-1060.100830078125	-299.4232788085938	62.05228424072267	-1051.459106445313	-302.2154541015626	62.54342651367189	-1097.982788085938	-340.1969909667969	42.13761520385743	-1142.204956054688	-410.5520935058595	545.0509643554689	-684.3352661132814	-342.5047912597657	552.0052490234376	-679.5836181640626	-325.8178405761719	577.7070312500001	-686.6077880859376	-288.4567871093751	485.6660461425782	-684.7515258789064	-222.0425109863282	421.0854797363282	-691.0739135742189	-221.785385131836	417.7245483398439	-810.215515136719	-227.8469238281251	290.8721313476563	-724.6692504882814	-325.7433776855469	268.2094116210938	-674.9998779296876	-294.8926696777344	241.6918487548829	-695.7107543945314	-317.8732910156251	195.8582611083985	-723.2890014648439	-452.5676879882814	93.2742156982422	-701.6037597656251	-432.9636840820314	99.67498779296878	-788.926940917969	-516.3076171875001	48.72082519531251	-748.8815917968751	-303.7077636718751	62.58803939819337	-762.6948242187501	-299.7190551757813	60.53111648559572	-726.1528320312501	-334.9208374023438	41.49129867553712	-672.1649169921876	nan	nan	nan	nan	nan	nan	
530	2.645	11.86305046081543	1287.451904296875	-905.110778808594	-122.8582229614258	1276.97607421875	-987.4172363281252	-174.16455078125	1273.95703125	-829.3491821289065	-249.0584106445313	1166.20361328125	-906.1511840820315	-463.7233886718751	955.750427246094	-892.661560058594	-164.3956146240235	1042.725463867188	-905.726745605469	-177.7794647216797	1104.82958984375	-1080.552734375	-348.5006713867188	1032.338623046875	-1225.554931640625	-353.4916076660157	984.2630004882815	-1218.249755859375	-400.7450561523439	997.151794433594	-1254.929809570313	-443.3030090332032	955.3342285156252	-1266.669799804688	-493.599822998047	1000.407836914063	-1215.200805664063	-567.4958496093751	758.9739379882814	-1104.432983398438	-539.8453979492189	722.1474609375001	-1157.8828125	-512.2889404296876	747.7935180664064	-1072.174926757813	-183.1685943603516	1097.982788085938	-716.6113281250001	-335.2552795410157	1026.160766601563	-565.4182739257814	-340.1777343750001	975.2015380859377	-570.0946044921876	-381.9232788085938	987.5385742187502	-528.4081420898439	-420.5085754394532	939.7454223632815	-511.1466369628907	-485.0194396972657	980.7095336914065	-556.0491943359376	-553.6606445312501	742.2585449218751	-664.2322998046876	-517.8933715820314	706.0705566406251	-610.8610229492189	-492.5752258300782	733.5729370117189	-705.2581787109376	-449.8153076171876	708.6896362304689	-1010.478393554688	-439.2762756347657	697.2077636718751	-785.2163085937502	-564.4028320312501	823.4136352539065	-881.839782714844	-591.5219726562501	801.9631347656252	-907.361022949219	-584.8455810546876	801.5449829101565	-851.343933105469	-471.8348999023439	589.1064453125001	-1122.120971679688	-390.0531005859376	573.7509765625001	-1145.3681640625	-362.7206420898438	610.2900390625001	-1135.192504882813	-363.0011901855469	520.0192260742189	-1152.304077148438	-239.0456542968751	435.5219116210939	-1164.107177734375	-219.9934997558594	430.0460815429689	-1049.730224609375	-272.5914611816407	275.1777038574219	-1078.734252929688	-322.9952697753907	242.3375396728516	-1144.975463867188	-296.1502380371094	229.3192596435547	-1108.8359375	-348.4966125488282	173.2958984375	-1071.100341796875	-450.9693908691407	90.32887268066408	-1110.374267578125	-427.3703613281251	101.4672622680664	-1025.7421875	-515.6142578125001	48.35090255737306	-1060.053344726563	-299.3786621093751	62.04438400268556	-1051.427734375	-302.1887207031251	62.54773712158205	-1097.948120117188	-340.2263488769532	42.13611602783204	-1142.167724609375	-410.273162841797	543.9594116210939	-684.5097656250001	-341.9191589355469	550.7761840820314	-679.4339599609376	-325.6367797851563	576.7345581054689	-686.6607666015626	-287.9399108886719	484.4580078125001	-684.7709960937501	-221.2416992187501	420.5000610351564	-690.9166259765626	-221.3026123046876	417.0857238769532	-810.1610107421877	-227.4022979736329	290.5688781738282	-724.8022460937501	-325.2274475097657	267.9990234375001	-675.0477294921876	-294.5747985839844	241.3759460449219	-695.7294311523439	-317.5881042480469	195.7236633300782	-723.3519287109376	-452.4648437500001	93.22412109375001	-701.6208496093751	-432.8327026367189	99.65879058837893	-788.9464111328127	-516.0323486328126	48.40808105468751	-748.9364013671876	-303.7081298828126	62.50985717773439	-762.6948242187501	-299.4916076660157	60.49826431274415	-726.1875000000001	-334.9432983398438	41.46929168701173	-672.2238159179689	nan	nan	nan	nan	nan	nan	
531	2.65	13.24727725982666	1284.277587890625	-905.1702270507815	-121.5472488403321	1273.8642578125	-987.7416992187502	-173.0719604492188	1271.000610351563	-829.546325683594	-248.1102752685547	1163.370483398438	-906.3267211914065	-463.2570190429689	953.4428710937502	-892.6912231445315	-163.78564453125	1039.791748046875	-905.753356933594	-176.9327087402344	1101.779296875	-1080.4580078125	-347.5287475585938	1029.6767578125	-1225.797241210938	-352.9214477539063	981.6627197265627	-1218.35986328125	-399.8641967773439	994.641296386719	-1255.189819335938	-441.876922607422	952.6115722656252	-1266.88916015625	-492.3015441894532	998.257263183594	-1215.5908203125	-567.7539062500001	757.6905517578126	-1104.554443359375	-539.8357543945314	720.2440795898439	-1157.780029296875	-512.2108154296876	745.8753051757814	-1072.228515625	-182.0642242431641	1095.119262695313	-716.8629760742189	-334.2254333496094	1023.627868652344	-565.3542480468751	-339.2577819824219	972.7158813476565	-570.0295410156251	-380.8281860351563	985.2935180664065	-528.2786865234376	-419.6646118164064	937.528503417969	-511.3332519531251	-484.1942138671876	978.9241943359377	-555.6931152343751	-553.5338745117189	740.4866333007814	-664.0498046875001	-517.7668457031251	704.2645874023439	-610.7169189453126	-492.6726684570314	732.1392822265626	-705.1812133789064	-449.9636535644532	706.8343505859376	-1010.696899414063	-439.9171142578126	694.2532958984376	-785.8029785156252	-564.1255493164064	821.3519287109377	-881.7807617187502	-591.2816772460939	800.1630859375002	-907.3196411132815	-584.6444702148439	799.4509887695315	-851.2998046875002	-471.7278137207032	587.6979370117189	-1122.080810546875	-389.8035583496095	572.5347900390626	-1145.56396484375	-362.6433105468751	609.4419555664064	-1135.18505859375	-362.7926940917969	519.0853271484376	-1152.438720703125	-238.416244506836	435.1272583007814	-1164.272827148438	-220.0870513916016	429.6339111328126	-1050.234741210938	-272.2028808593751	274.8001403808594	-1078.875732421875	-322.8419189453126	241.9548797607422	-1145.21240234375	-296.3458862304688	228.6849517822266	-1109.393310546875	-348.2029724121094	173.0894165039063	-1071.130493164063	-450.944061279297	90.32895660400392	-1110.31103515625	-427.300506591797	101.4215545654297	-1025.635620117188	-515.5065917968751	48.41130447387697	-1060.055419921875	-299.3890380859376	61.97669601440431	-1051.463012695313	-302.0514831542969	62.52830123901369	-1097.97021484375	-340.1059875488282	42.25667953491212	-1142.152587890625	-409.9674072265626	542.6620483398439	-684.3867797851564	-341.8641357421876	549.8704833984376	-679.6424560546876	-325.3939514160157	575.7279663085939	-686.5878295898439	-287.6755371093751	484.0843200683595	-684.7263793945314	-220.5553436279297	419.8404541015626	-690.8901367187501	-220.3930664062501	416.6255187988282	-810.301208496094	-226.7443389892579	290.1798706054688	-725.0916137695314	-324.7418518066407	267.8031005859376	-675.1758422851564	-294.3116455078126	240.9476165771485	-695.6473999023439	-317.2211303710938	195.4919433593751	-723.4658203125001	-452.3158569335939	93.22133636474611	-701.6621704101564	-432.8012084960939	99.64284515380862	-788.9807128906252	-515.9553222656251	48.44588851928712	-748.9688110351564	-303.6924438476563	62.48989868164064	-762.7229614257814	-299.5701599121094	60.49337005615236	-726.1517333984376	-334.9382324218751	41.52061843872071	-672.1752319335939	nan	nan	nan	nan	nan	nan	
532	2.655	13.98027610778809	1281.734741210938	-905.5610961914065	-120.5706481933594	1270.747680664063	-987.689880371094	-171.788558959961	1268.085205078125	-829.670837402344	-246.8236541748047	1160.62890625	-906.5532226562502	-462.6732788085939	951.2517089843752	-892.7044067382815	-162.8127593994141	1036.44384765625	-905.6270141601565	-175.6023864746094	1098.647338867188	-1080.480834960938	-346.2481994628907	1027.296630859375	-1226.119873046875	-351.9309387207032	979.0134887695315	-1218.55908203125	-398.869598388672	992.4765625000002	-1255.385131835938	-441.8289489746095	950.8110961914065	-1267.17529296875	-491.2625122070314	995.8057250976565	-1215.771118164063	-567.2977294921876	755.6074218750001	-1104.505859375	-539.8222045898439	718.5861206054689	-1157.785888671875	-512.2357788085939	744.0825195312501	-1072.155029296875	-180.8844757080078	1092.36083984375	-717.2098388671876	-333.3838806152344	1020.990173339844	-565.1580200195314	-338.4060363769532	970.351745605469	-570.0614624023439	-379.6634521484376	982.8535156250002	-528.1975708007814	-418.5708618164064	935.593444824219	-511.1213378906251	-483.0223083496095	977.1096801757815	-555.6447143554689	-553.8609619140626	738.9805908203126	-664.1152343750001	-517.7896728515626	702.6638793945314	-610.8845825195314	-492.541961669922	730.1123657226564	-705.2352294921876	-449.7304992675782	704.6413574218751	-1010.977905273438	-439.9307861328126	692.5879516601564	-786.1556396484377	-563.8541870117189	819.843933105469	-881.9213867187502	-590.9951782226564	798.2835083007815	-907.3809204101565	-584.4559326171876	797.7051391601565	-851.3786621093752	-471.5404663085939	586.6915283203126	-1122.109619140625	-389.7416992187501	571.3840332031251	-1145.447509765625	-362.5738830566407	608.5310668945314	-1135.174926757813	-362.4176635742188	518.3354492187501	-1152.631591796875	-237.8846893310547	434.6704406738282	-1164.476440429688	-218.7154998779297	428.889129638672	-1050.468017578125	-271.8839111328126	274.6768798828126	-1079.028442382813	-322.5827941894532	241.6850738525391	-1145.280883789063	-296.0016784667969	228.5282440185547	-1109.341796875	-347.9656677246094	173.0388336181641	-1071.221069335938	-450.9277954101564	90.34328460693361	-1110.203125	-427.1879272460939	101.4509429931641	-1025.639404296875	-515.5147705078126	48.45020675659181	-1059.981323242188	-299.3285522460938	61.980770111084	-1051.425659179688	-302.0343933105469	62.59627532958986	-1098.007568359375	-340.5628967285157	41.70409011840821	-1142.245239257813	-409.6575927734376	541.4086914062501	-684.3697509765626	-341.4105834960938	548.8994750976564	-679.7490844726564	-325.0958557128907	574.8511352539064	-686.7957763671876	-287.1029357910157	483.2481994628907	-684.7226562500001	-220.0552368164063	419.5615844726564	-691.0132446289064	-219.7114410400391	416.0527648925782	-810.344665527344	-226.3563079833985	289.8853149414063	-725.2042846679689	-324.3469543457032	267.5910949707032	-675.2656250000001	-293.9125671386719	240.7618713378907	-695.5704345703126	-316.9157409667969	195.2478027343751	-723.5911865234376	-452.2315979003907	93.2321014404297	-701.7012329101564	-432.7605895996095	99.59349060058597	-789.0740966796877	-515.9114379882814	48.50541305541994	-749.1058959960939	-303.6288757324219	62.49181365966798	-762.7104492187501	-299.4725341796876	60.44086837768556	-726.2648925781251	-334.9678344726563	41.45309829711915	-672.2387695312501	nan	nan	nan	nan	nan	nan	
